<svg xmlns="http://www.w3.org/2000/svg" viewBox="0 0 640 640" role="img" aria-labelledby="title desc">
  <title id="title">Tuklas AR reusable marker</title>
  <desc id="desc">A black and white square marker trained for the Tuklas AR Science Lab prototype.</desc>
  <rect width="640" height="640" fill="#fff"/>
  <rect x="64" y="64" width="512" height="512" fill="#111"/>
  <rect x="192" y="192" width="256" height="256" fill="#fff"/>
  <rect x="192" y="192" width="16" height="16" fill="#111"/>
  <rect x="208" y="192" width="16" height="16" fill="#111"/>
  <rect x="224" y="192" width="16" height="16" fill="#111"/>
  <rect x="240" y="192" width="16" height="16" fill="#111"/>
  <rect x="384" y="192" width="16" height="16" fill="#111"/>
  <rect x="400" y="192" width="16" height="16" fill="#111"/>
  <rect x="416" y="192" width="16" height="16" fill="#111"/>
  <rect x="192" y="208" width="16" height="16" fill="#111"/>
  <rect x="208" y="208" width="16" height="16" fill="#111"/>
  <rect x="224" y="208" width="16" height="16" fill="#111"/>
  <rect x="240" y="208" width="16" height="16" fill="#111"/>
  <rect x="384" y="208" width="16" height="16" fill="#111"/>
  <rect x="400" y="208" width="16" height="16" fill="#111"/>
  <rect x="416" y="208" width="16" height="16" fill="#111"/>
  <rect x="192" y="224" width="16" height="16" fill="#111"/>
  <rect x="208" y="224" width="16" height="16" fill="#111"/>
  <rect x="224" y="224" width="16" height="16" fill="#111"/>
  <rect x="240" y="224" width="16" height="16" fill="#111"/>
  <rect x="384" y="224" width="16" height="16" fill="#111"/>
  <rect x="400" y="224" width="16" height="16" fill="#111"/>
  <rect x="416" y="224" width="16" height="16" fill="#111"/>
  <rect x="192" y="240" width="16" height="16" fill="#111"/>
  <rect x="208" y="240" width="16" height="16" fill="#111"/>
  <rect x="224" y="240" width="16" height="16" fill="#111"/>
  <rect x="240" y="240" width="16" height="16" fill="#111"/>
  <rect x="288" y="256" width="16" height="16" fill="#111"/>
  <rect x="304" y="256" width="16" height="16" fill="#111"/>
  <rect x="192" y="272" width="16" height="16" fill="#111"/>
  <rect x="208" y="272" width="16" height="16" fill="#111"/>
  <rect x="224" y="272" width="16" height="16" fill="#111"/>
  <rect x="240" y="272" width="16" height="16" fill="#111"/>
  <rect x="256" y="272" width="16" height="16" fill="#111"/>
  <rect x="272" y="272" width="16" height="16" fill="#111"/>
  <rect x="288" y="272" width="16" height="16" fill="#111"/>
  <rect x="304" y="272" width="16" height="16" fill="#111"/>
  <rect x="320" y="272" width="16" height="16" fill="#111"/>
  <rect x="336" y="272" width="16" height="16" fill="#111"/>
  <rect x="352" y="272" width="16" height="16" fill="#111"/>
  <rect x="368" y="272" width="16" height="16" fill="#111"/>
  <rect x="384" y="272" width="16" height="16" fill="#111"/>
  <rect x="400" y="272" width="16" height="16" fill="#111"/>
  <rect x="416" y="272" width="16" height="16" fill="#111"/>
  <rect x="240" y="288" width="16" height="16" fill="#111"/>
  <rect x="256" y="288" width="16" height="16" fill="#111"/>
  <rect x="288" y="288" width="16" height="16" fill="#111"/>
  <rect x="304" y="288" width="16" height="16" fill="#111"/>
  <rect x="336" y="288" width="16" height="16" fill="#111"/>
  <rect x="352" y="288" width="16" height="16" fill="#111"/>
  <rect x="240" y="304" width="16" height="16" fill="#111"/>
  <rect x="256" y="304" width="16" height="16" fill="#111"/>
  <rect x="288" y="304" width="16" height="16" fill="#111"/>
  <rect x="304" y="304" width="16" height="16" fill="#111"/>
  <rect x="336" y="304" width="16" height="16" fill="#111"/>
  <rect x="352" y="304" width="16" height="16" fill="#111"/>
  <rect x="240" y="320" width="16" height="16" fill="#111"/>
  <rect x="256" y="320" width="16" height="16" fill="#111"/>
  <rect x="288" y="320" width="16" height="16" fill="#111"/>
  <rect x="304" y="320" width="16" height="16" fill="#111"/>
  <rect x="336" y="320" width="16" height="16" fill="#111"/>
  <rect x="352" y="320" width="16" height="16" fill="#111"/>
  <rect x="240" y="336" width="16" height="16" fill="#111"/>
  <rect x="256" y="336" width="16" height="16" fill="#111"/>
  <rect x="336" y="336" width="16" height="16" fill="#111"/>
  <rect x="352" y="336" width="16" height="16" fill="#111"/>
  <rect x="240" y="352" width="16" height="16" fill="#111"/>
  <rect x="256" y="352" width="16" height="16" fill="#111"/>
  <rect x="288" y="352" width="16" height="16" fill="#111"/>
  <rect x="304" y="352" width="16" height="16" fill="#111"/>
  <rect x="320" y="352" width="16" height="16" fill="#111"/>
  <rect x="336" y="352" width="16" height="16" fill="#111"/>
  <rect x="352" y="352" width="16" height="16" fill="#111"/>
  <rect x="368" y="352" width="16" height="16" fill="#111"/>
  <rect x="336" y="368" width="16" height="16" fill="#111"/>
  <rect x="352" y="368" width="16" height="16" fill="#111"/>
  <rect x="192" y="384" width="16" height="16" fill="#111"/>
  <rect x="208" y="384" width="16" height="16" fill="#111"/>
  <rect x="224" y="384" width="16" height="16" fill="#111"/>
  <rect x="240" y="384" width="16" height="16" fill="#111"/>
  <rect x="336" y="384" width="16" height="16" fill="#111"/>
  <rect x="352" y="384" width="16" height="16" fill="#111"/>
  <rect x="384" y="384" width="16" height="16" fill="#111"/>
  <rect x="400" y="384" width="16" height="16" fill="#111"/>
  <rect x="416" y="384" width="16" height="16" fill="#111"/>
  <rect x="432" y="384" width="16" height="16" fill="#111"/>
  <rect x="192" y="400" width="16" height="16" fill="#111"/>
  <rect x="208" y="400" width="16" height="16" fill="#111"/>
  <rect x="224" y="400" width="16" height="16" fill="#111"/>
  <rect x="240" y="400" width="16" height="16" fill="#111"/>
  <rect x="336" y="400" width="16" height="16" fill="#111"/>
  <rect x="352" y="400" width="16" height="16" fill="#111"/>
  <rect x="384" y="400" width="16" height="16" fill="#111"/>
  <rect x="192" y="416" width="16" height="16" fill="#111"/>
  <rect x="208" y="416" width="16" height="16" fill="#111"/>
  <rect x="224" y="416" width="16" height="16" fill="#111"/>
  <rect x="240" y="416" width="16" height="16" fill="#111"/>
  <rect x="336" y="416" width="16" height="16" fill="#111"/>
  <rect x="352" y="416" width="16" height="16" fill="#111"/>
  <rect x="384" y="416" width="16" height="16" fill="#111"/>
  <rect x="400" y="416" width="16" height="16" fill="#111"/>
  <rect x="416" y="416" width="16" height="16" fill="#111"/>
  <rect x="432" y="416" width="16" height="16" fill="#111"/>
  <text x="320" y="620" text-anchor="middle" font-family="Arial, Helvetica, sans-serif" font-size="28" font-weight="900" fill="#111">TUKLAS AR</text>
</svg>
